<?xml version="1.0" encoding="UTF-8"?>
<svg id="Layer_1" xmlns="http://www.w3.org/2000/svg" version="1.1" viewBox="0 0 700 500">
  <!-- Generator: Adobe Illustrator 29.2.1, SVG Export Plug-In . SVG Version: 2.1.0 Build 116)  -->
  <defs>
    <style>
      .st0, .st1, .st2, .st3, .st4 {
        fill: none;
      }

      .st5 {
        fill: #f59e0b;
      }

      .st5, .st6, .st7, .st8, .st9, .st4 {
        stroke-width: 2px;
      }

      .st5, .st6, .st9 {
        stroke: #fff;
      }

      .st10 {
        fill: #1e3a8a;
        font-size: 16px;
      }

      .st10, .st11, .st12, .st13 {
        font-weight: 700;
      }

      .st10, .st8 {
        isolation: isolate;
      }

      .st10, .st12, .st13 {
        font-family: Arial-BoldMT, Arial;
      }

      .st6 {
        fill: #10b981;
      }

      .st14 {
        font-size: 10px;
      }

      .st14, .st11, .st15 {
        font-style: italic;
      }

      .st14, .st15 {
        font-family: Arial-ItalicMT, Arial;
      }

      .st11 {
        font-family: Arial-BoldItalicMT, Arial;
      }

      .st11, .st16, .st17, .st12 {
        font-size: 12px;
      }

      .st1 {
        stroke: #711411;
        stroke-width: 4px;
      }

      .st2 {
        stroke: #78716c;
        stroke-width: 3px;
      }

      .st16, .st18 {
        font-family: ArialMT, Arial;
      }

      .st7 {
        fill: #faf064;
        stroke: #231f20;
      }

      .st7, .st3, .st4 {
        stroke-miterlimit: 10;
      }

      .st8 {
        fill: #60a5fa;
        opacity: .7;
        stroke: #1e40af;
      }

      .st3, .st4 {
        stroke: #000;
      }

      .st9 {
        fill: #ef4444;
      }

      .st19 {
        fill: #8d9092;
      }
    </style>
  </defs>
  <text class="st10" transform="translate(108.8 44.8)"><tspan x="0" y="0">Relative Linear Referencing: Measurements from a Referent</tspan></text>
  <path class="st0" d=""/>
  <polygon class="st7" points="676.9 138.5 384.9 138.5 387.8 245.8 679.8 245.8 676.9 138.5"/>
  <rect class="st8" x="285" y="120" width="30" height="279"/>
  <circle class="st5" cx="300" cy="400" r="6"/>
  <text class="st17" transform="translate(294 417.2)"><tspan class="st13" x="0" y="0">39.0 </tspan><tspan class="st18" x="26.7" y="0">(linear referenced coordinate at</tspan><tspan class="st18"><tspan x="0" y="14.4" xml:space="preserve">         bottom of hole measured from referent)</tspan></tspan></text>
  <text class="st17" transform="translate(339.3 123)"><tspan class="st13" x="0" y="0">0.0 </tspan><tspan class="st18" x="20" y="0">(new origin = linear referenced coordinate at referent)</tspan></text>
  <text class="st17" transform="translate(194.5 215.2)"><tspan class="st13"><tspan x="0" y="0">7.0 </tspan></tspan><tspan class="st18"><tspan x="-22.3" y="14.4">(water level </tspan></tspan><tspan class="st18"><tspan x="-10.7" y="28.8">location</tspan></tspan><tspan class="st18"><tspan x="-37.7" y="43.2">from top of casing</tspan></tspan><tspan class="st18"><tspan x="-60.9" y="57.6">= same physical location! )</tspan></tspan></text>
  <rect class="st19" x="285" y="194" width="30" height="37"/>
  <line class="st4" x1="300" y1="101" x2="300" y2="394"/>
  <circle class="st6" cx="300" cy="170" r="5"/>
  <g>
    <line class="st3" x1="217.2" y1="209.6" x2="292.6" y2="173.7"/>
    <path d="M291,174.5l-3.5-2.3h0c0-.1,6.3-.5,6.3-.5,2-.5,4.1-.9,6.1-1.4-1.7,1.3-3.3,2.6-5,3.9l-4.3,4.6h-.1s.4-4.2.4-4.2Z"/>
  </g>
  <text class="st12" transform="translate(341.8 258.4)"><tspan x="0" y="0">Positive</tspan><tspan x="-3" y="14.4">Direction</tspan><tspan x="-7.3" y="28.8">Downward</tspan></text>
  <g>
    <line class="st3" x1="361.6" y1="294.5" x2="361.6" y2="337.4"/>
    <path d="M361.6,335.6l3.6-2.2h0c0,.1-2.3,6-2.3,6-.5,2-.9,4.1-1.4,6.1-.5-2-.9-4.1-1.4-6.1l-2.3-5.9h0c0-.1,3.6,2.1,3.6,2.1Z"/>
  </g>
  <text transform="translate(453.9 154.5)"><tspan class="st12"><tspan x="0" y="0">Linear Referencing Method</tspan></tspan><tspan class="st11"><tspan x="47.7" y="14.4">Properties</tspan></tspan><tspan class="st17"><tspan class="st15" x="43.3" y="28.8">type</tspan><tspan class="st18" x="66" y="28.8">: relative</tspan></tspan><tspan class="st17"><tspan class="st15" x="58" y="43.2">units</tspan><tspan class="st18" x="83.3" y="43.2">: ft</tspan></tspan><tspan class="st17"><tspan class="st15" x="2.6" y="57.6">positiveDirection</tspan><tspan class="st18" x="90.7" y="57.6">: downward</tspan></tspan><tspan class="st14"><tspan x="13.2" y="69.6">(all positions measured from </tspan></tspan><tspan class="st14"><tspan x="24.4" y="81.6">referent = top of casing)</tspan></tspan></text>
  <text/>
  <text/>
  <polyline class="st2" points="59.1 100 267.8 100 267.8 119.3 330.8 119.3 330.8 101 532.3 101"/>
  <polyline class="st1" points="285 158.5 285 120 315 120 315 158.9"/>
  <circle class="st9" cx="300" cy="120" r="6"/>
  <text class="st17" transform="translate(164.8 147.5)"><tspan class="st13"><tspan x="0" y="0">Referent</tspan></tspan><tspan class="st18"><tspan x="-32.7" y="14.4">(top of casing located</tspan></tspan><tspan class="st18"><tspan x="-30.4" y="28.8">2.0 ft along borehole</tspan></tspan><tspan class="st18"><tspan x="-3.7" y="43.2">centerline)</tspan></tspan></text>
  <text class="st16" transform="translate(318.2 147.5)"><tspan x="0" y="0">Casing</tspan></text>
  <g>
    <line class="st3" x1="219.6" y1="143.1" x2="292.2" y2="122.1"/>
    <path d="M290.4,122.6l-3.1-2.8h0c0-.1,6.3.5,6.3.5,2.1-.1,4.2-.3,6.3-.4-1.8,1-3.7,2-5.5,3l-5,3.9h-.1s1.1-4.1,1.1-4.1Z"/>
  </g>
</svg>