<?xml version="1.0" encoding="UTF-8"?>
<svg id="Layer_1" xmlns="http://www.w3.org/2000/svg" version="1.1" viewBox="0 0 700 500">
  <!-- Generator: Adobe Illustrator 29.2.1, SVG Export Plug-In . SVG Version: 2.1.0 Build 116)  -->
  <defs>
    <style>
      .st0 {
        fill: #f59e0b;
      }

      .st0, .st1, .st2, .st3, .st4, .st5 {
        stroke-width: 2px;
      }

      .st0, .st1, .st4 {
        stroke: #fff;
      }

      .st6 {
        font-size: 16px;
      }

      .st6, .st7, .st8, .st9, .st10, .st3, .st11 {
        isolation: isolate;
      }

      .st6, .st10, .st11 {
        font-weight: 700;
      }

      .st6, .st12 {
        fill: #1e3a8a;
      }

      .st6, .st11 {
        font-family: Arial-BoldMT, Arial;
      }

      .st1 {
        fill: #10b981;
      }

      .st13, .st8 {
        font-size: 10px;
      }

      .st13, .st8, .st10, .st14 {
        font-style: italic;
      }

      .st13, .st8, .st14 {
        font-family: Arial-ItalicMT, Arial;
      }

      .st15 {
        stroke: #711411;
        stroke-width: 4px;
      }

      .st15, .st16, .st17, .st5 {
        fill: none;
      }

      .st16 {
        stroke: #78716c;
        stroke-width: 3px;
      }

      .st9, .st10, .st18, .st11 {
        font-size: 12px;
      }

      .st9, .st19 {
        font-family: ArialMT, Arial;
      }

      .st2 {
        fill: #faf064;
        stroke: #231f20;
      }

      .st2, .st17, .st5 {
        stroke-miterlimit: 10;
      }

      .st10 {
        font-family: Arial-BoldItalicMT, Arial;
      }

      .st3 {
        fill: #60a5fa;
        opacity: .7;
        stroke: #1e40af;
      }

      .st17, .st5 {
        stroke: #000;
      }

      .st4 {
        fill: #ef4444;
      }

      .st20 {
        fill: #8d9092;
      }
    </style>
  </defs>
  <g class="st7">
    <text class="st6" transform="translate(108.8 44.8)"><tspan x="0" y="0">Relative Linear Referencing: Measurements from a Referent</tspan></text>
  </g>
  <path class="st12" d="M0,0"/>
  <polygon class="st2" points="676.9 138.5 384.9 138.5 387.8 258.4 679.8 258.4 676.9 138.5"/>
  <rect class="st3" x="285" y="120" width="30" height="279"/>
  <circle class="st0" cx="300" cy="400" r="6"/>
  <g class="st7">
    <text class="st11" transform="translate(294 417.2)"><tspan x="0" y="0">39.0 </tspan></text>
    <text class="st9" transform="translate(320.7 417.2)"><tspan x="0" y="0">(linear referenced coordinate at</tspan></text>
    <text class="st9" transform="translate(294 431.6)"><tspan x="0" y="0" xml:space="preserve">         bottom of hole measured from referent)</tspan></text>
  </g>
  <g class="st7">
    <text class="st11" transform="translate(339.3 123)"><tspan x="0" y="0">0.0 </tspan></text>
    <text class="st9" transform="translate(359.3 123)"><tspan x="0" y="0">(new origin = linear referenced coordinate at referent)</tspan></text>
  </g>
  <g class="st7">
    <text class="st11" transform="translate(194.5 215.2)"><tspan x="0" y="0">7.0 </tspan></text>
    <text class="st9" transform="translate(172.2 229.6)"><tspan x="0" y="0">(water level </tspan></text>
    <text class="st9" transform="translate(183.8 244)"><tspan x="0" y="0">location</tspan></text>
    <text class="st9" transform="translate(156.8 258.4)"><tspan x="0" y="0">from top of casing</tspan></text>
    <text class="st9" transform="translate(133.6 272.8)"><tspan x="0" y="0">= same physical location! )</tspan></text>
  </g>
  <rect class="st20" x="285" y="194" width="30" height="37"/>
  <line class="st5" x1="300" y1="101" x2="300" y2="394"/>
  <circle class="st1" cx="300" cy="170" r="5"/>
  <g>
    <line class="st17" x1="217.2" y1="209.6" x2="292.6" y2="173.7"/>
    <path d="M291,174.5l-3.5-2.3h0c0-.1,6.3-.5,6.3-.5,2-.5,4.1-.9,6.1-1.4-1.7,1.3-3.3,2.6-5,3.9l-4.3,4.6h-.1l.4-4.2h.1Z"/>
  </g>
  <g class="st7">
    <text class="st11" transform="translate(341.8 299.4)"><tspan x="0" y="0">Positive</tspan></text>
    <text class="st11" transform="translate(338.8 313.8)"><tspan x="0" y="0">Direction</tspan></text>
    <text class="st11" transform="translate(334.5 328.2)"><tspan x="0" y="0">Downward</tspan></text>
  </g>
  <g>
    <line class="st17" x1="361.6" y1="335.5" x2="361.6" y2="378.4"/>
    <path d="M361.6,376.6l3.6-2.2h0c0,.1-2.3,6-2.3,6-.5,2-.9,4.1-1.4,6.1-.5-2-.9-4.1-1.4-6.1l-2.3-5.9h0c0-.1,3.6,2.1,3.6,2.1h.2Z"/>
  </g>
  <g class="st7">
    <text class="st11" transform="translate(453.9 154.5)"><tspan x="0" y="0">Linear Referencing Method</tspan></text>
    <text class="st10" transform="translate(501.6 168.9)"><tspan x="0" y="0">Properties</tspan></text>
    <text/>
    <text/>
    <text/>
    <text/>
    <text/>
    <text/>
    <text/>
    <text class="st8" transform="translate(478.3 236.1)"><tspan x="0" y="0">)</tspan></text>
  </g>
  <polyline class="st16" points="59.1 100 267.8 100 267.8 119.3 330.8 119.3 330.8 101 532.3 101"/>
  <polyline class="st15" points="285 158.5 285 120 315 120 315 158.9"/>
  <circle class="st4" cx="300" cy="120" r="6"/>
  <g class="st7">
    <text class="st11" transform="translate(164.8 147.5)"><tspan x="0" y="0">Referent</tspan></text>
    <text class="st9" transform="translate(132.1 161.9)"><tspan x="0" y="0">(top of casing located</tspan></text>
    <text class="st9" transform="translate(125.4 176.3)"><tspan x="0" y="0">2.0 ft down along borehole</tspan></text>
    <text class="st9" transform="translate(161.1 190.7)"><tspan x="0" y="0">centerline)</tspan></text>
  </g>
  <g class="st7">
    <text class="st9" transform="translate(318.2 147.5)"><tspan x="0" y="0">Casing</tspan></text>
  </g>
  <g>
    <line class="st17" x1="219.6" y1="143.1" x2="292.2" y2="122.1"/>
    <path d="M290.4,122.6l-3.1-2.8h0c0,0,6.3.5,6.3.5,2.1,0,4.2-.3,6.3-.4-1.8,1-3.7,2-5.5,3l-5,3.9h-.1l1.1-4.1h0Z"/>
  </g>
  <text transform="translate(477.9 182)"><tspan class="st18"><tspan class="st14" x="0" y="0">name</tspan><tspan class="st19" x="30" y="0">: trueFootage</tspan></tspan><tspan class="st18"><tspan class="st14" x="16.7" y="14.4">type</tspan><tspan class="st19" x="39.4" y="14.4">: relative</tspan></tspan><tspan class="st18"><tspan class="st14" x="31.4" y="28.8">units</tspan><tspan class="st19" x="56.7" y="28.8">: ft</tspan></tspan><tspan class="st18"><tspan class="st14" x="-24" y="43.2">positiveDirection</tspan><tspan class="st19" x="64" y="43.2">: downward</tspan></tspan><tspan class="st13"><tspan x="-12.1" y="55.2">(all positions measured from</tspan></tspan><tspan class="st13"><tspan x="-2.2" y="67.2">referent = top of casing)</tspan></tspan></text>
</svg>