<?xml version="1.0" encoding="UTF-8"?>
<svg id="Layer_1" xmlns="http://www.w3.org/2000/svg" version="1.1" viewBox="0 0 600 500">
  <!-- Generator: Adobe Illustrator 29.2.1, SVG Export Plug-In . SVG Version: 2.1.0 Build 116)  -->
  <defs>
    <style>
      .st0, .st1, .st2, .st3 {
        fill: none;
      }

      .st4 {
        fill: #78716c;
      }

      .st4, .st5, .st6, .st7, .st8, .st9, .st10 {
        isolation: isolate;
      }

      .st4, .st7, .st9 {
        font-family: ArialMT, Arial;
      }

      .st4, .st10 {
        font-size: 11px;
      }

      .st5 {
        font-size: 16px;
      }

      .st5, .st11, .st10 {
        font-family: Arial-BoldMT, Arial;
        font-weight: 700;
      }

      .st5, .st10 {
        fill: #1e3a8a;
      }

      .st6 {
        fill: #e7e5e4;
        opacity: .5;
      }

      .st12 {
        fill: #3b82f6;
      }

      .st1 {
        stroke: #78716c;
        stroke-width: 3px;
      }

      .st7 {
        fill: #475569;
        font-size: 10px;
      }

      .st8 {
        fill: #60a5fa;
        opacity: .7;
        stroke: #1e40af;
      }

      .st8, .st3 {
        stroke-width: 2px;
      }

      .st11, .st9 {
        font-size: 12px;
      }

      .st2, .st3 {
        stroke: #000;
        stroke-miterlimit: 10;
      }

      .st9 {
        fill: #57534e;
      }

      .st13 {
        fill: #ef4444;
      }

      .st14 {
        fill: #10b981;
      }
    </style>
  </defs>
  <text class="st5" transform="translate(131.1 25)"><tspan x="0" y="0">LinearExtent: Borehole Centerline Geometry</tspan></text>
  <line class="st1" x1="50" y1="120" x2="550" y2="120"/>
  <rect class="st6" x="38.9" y="115" width="500" height="40"/>
  <text class="st9" transform="translate(399.8 115)"><tspan x="0" y="0">Ground Surface</tspan></text>
  <text class="st4" transform="translate(407.3 135)"><tspan x="0" y="0">Elev: 818.6 ft</tspan></text>
  <rect class="st8" x="285" y="120" width="30" height="320"/>
  <circle class="st13" cx="300" cy="120" r="5"/>
  <text class="st10" transform="translate(169.2 66.4)"><tspan x="0" y="0">First Coordinate:</tspan></text>
  <text class="st7" transform="translate(169.2 81.4)"><tspan x="0" y="0">39.474660째N, -81.796858째W</tspan></text>
  <text class="st7" transform="translate(169.2 96.4)"><tspan x="0" y="0">Elevation: 818.6 ft</tspan></text>
  <circle class="st13" cx="300" cy="440" r="5"/>
  <text class="st10" transform="translate(347.6 450.1)"><tspan x="0" y="0">Last Coordinate:</tspan></text>
  <text class="st7" transform="translate(347.6 465.1)"><tspan x="0" y="0">39.474660째N, -81.796858째W</tspan></text>
  <text class="st7" transform="translate(347.6 480.1)"><tspan x="0" y="0">Elevation: 777.6 ft</tspan></text>
  <path class="st0" d=""/>
  <path class="st0" d=""/>
  <path class="st14" d="M240,120" marker-end="url(#arrowgreen)"/>
  <text class="st11" transform="translate(261.5 374.4) rotate(-90)"><tspan x="0" y="0">Total Measured Depth = 41.0 feet</tspan></text>
  <path class="st0" d=""/>
  <path class="st12" d="M305,350" marker-end="url(#arrowblue)"/>
  <line class="st3" x1="300" y1="125" x2="300" y2="435"/>
  <text class="st11" transform="translate(358 234.4)"><tspan x="0" y="0">Measurements </tspan><tspan x="0" y="14.4">proceed from </tspan><tspan x="0" y="28.8">first to last</tspan><tspan x="0" y="43.2">coordinate</tspan><tspan x="0" y="57.6">down borehole</tspan><tspan x="0" y="72">centerline</tspan></text>
  <g>
    <line class="st2" x1="268.9" y1="128.2" x2="268.9" y2="431.8"/>
    <path d="M268.9,129.9l3.6,2.2h0c0-.1-2.3-6-2.3-6-.5-2-.9-4.1-1.4-6.1-.5,2-.9,4.1-1.4,6.1l-2.3,5.9h0c0,.1,3.6-2.1,3.6-2.1Z"/>
    <path d="M268.9,430.1l3.6-2.2h0c0,.1-2.3,6-2.3,6-.5,2-.9,4.1-1.4,6.1-.5-2-.9-4.1-1.4-6.1l-2.3-5.9h0c0-.1,3.6,2.1,3.6,2.1Z"/>
  </g>
  <path class="st0" d="M307,295.3"/>
  <g>
    <line class="st2" x1="354.1" y1="265.6" x2="307.1" y2="291.4"/>
    <path d="M308.7,290.5l3.7,2.1h0c0,.1-6.3.9-6.3.9-2,.6-4,1.2-6,1.8,1.6-1.4,3.2-2.8,4.7-4.1l4-4.9h.1s-.2,4.2-.2,4.2Z"/>
  </g>
  <path class="st0" d="M263.8,91.2"/>
  <g>
    <line class="st2" x1="261.5" y1="89.1" x2="293.5" y2="113.7"/>
    <path d="M292.1,112.6l.5-4.2h.1s3.2,5.4,3.2,5.4c1.4,1.6,2.7,3.2,4.1,4.8-1.9-.9-3.8-1.8-5.7-2.7l-6.1-1.7h0c0-.1,3.9-1.7,3.9-1.7Z"/>
  </g>
  <g>
    <line class="st2" x1="342.7" y1="461.5" x2="307.2" y2="442.8"/>
    <path d="M308.8,443.6l.3,4.2h-.1s-4.1-4.8-4.1-4.8c-1.6-1.4-3.2-2.7-4.8-4.1,2,.6,4,1.1,6.1,1.7l6.3.7h0c0,.1-3.6,2.3-3.6,2.3Z"/>
  </g>
</svg>