<?xml version="1.0" encoding="UTF-8"?>
<svg id="Layer_1" xmlns="http://www.w3.org/2000/svg" version="1.1" viewBox="0 0 700 450">
  <!-- Generator: Adobe Illustrator 29.2.1, SVG Export Plug-In . SVG Version: 2.1.0 Build 116)  -->
  <defs>
    <style>
      .st0 {
        fill: #92400e;
      }

      .st0, .st1, .st2, .st3, .st4, .st5, .st6, .st7, .st8, .st9, .st10, .st11 {
        isolation: isolate;
      }

      .st0, .st1, .st2, .st8, .st10 {
        font-family: Arial-BoldMT, Arial;
        font-weight: 700;
      }

      .st0, .st10 {
        font-size: 14px;
      }

      .st1 {
        font-size: 18px;
      }

      .st1, .st10 {
        fill: #1e3a8a;
      }

      .st2 {
        fill: #065f46;
        font-size: 16px;
      }

      .st3, .st4 {
        font-size: 11px;
      }

      .st3, .st4, .st6, .st7, .st11 {
        font-family: ArialMT, Arial;
      }

      .st3, .st7 {
        fill: #475569;
      }

      .st12 {
        fill: #fef3c7;
        stroke: #f59e0b;
      }

      .st12, .st13 {
        stroke-width: 2px;
      }

      .st14, .st8 {
        fill: #3b82f6;
      }

      .st4, .st11 {
        fill: #334155;
      }

      .st6, .st11 {
        font-size: 12px;
      }

      .st7, .st9 {
        font-size: 10px;
      }

      .st8 {
        font-size: 36px;
      }

      .st9 {
        fill: #6b7280;
        font-family: Arial-ItalicMT, Arial;
        font-style: italic;
      }

      .st15 {
        stroke: #050300;
      }

      .st15, .st16 {
        fill: none;
        stroke-miterlimit: 10;
      }

      .st16 {
        stroke: #000;
      }

      .st13 {
        fill: #eff6ff;
        stroke: #3b82f6;
      }

      .st17 {
        fill: #f0fdf4;
        stroke: #10b981;
        stroke-width: 3px;
      }
    </style>
  </defs>
  <g class="st5">
    <text class="st1" transform="translate(211 25)"><tspan x="0" y="0">Linear Referencing Components</tspan></text>
  </g>
  <rect class="st13" x="50" y="60" width="200" height="100" rx="5" ry="5"/>
  <g class="st5">
    <text class="st10" transform="translate(99.8 85)"><tspan x="0" y="0">Linear Element</tspan></text>
  </g>
  <g class="st5">
    <text class="st4" transform="translate(97.5 105)"><tspan x="0" y="0">(diggs:LinearExtent)</tspan></text>
  </g>
  <g class="st5">
    <text class="st7" transform="translate(102.5 130)"><tspan x="0" y="0">The geometric path:</tspan></text>
  </g>
  <g class="st5">
    <text class="st7" transform="translate(103.1 145)"><tspan x="0" y="0">borehole centerline,</tspan></text>
  </g>
  <rect class="st12" x="450" y="60" width="200" height="100" rx="5" ry="5"/>
  <g class="st5">
    <text class="st0" transform="translate(464.8 85)"><tspan x="0" y="0">LinearReferencingMethod</tspan></text>
  </g>
  <g class="st5">
    <text class="st4" transform="translate(469 105)"><tspan x="0" y="0">(diggs:LinearReferencingMethod)</tspan></text>
  </g>
  <g class="st5">
    <text class="st7" transform="translate(510.3 130)"><tspan x="0" y="0">How positions are</tspan></text>
  </g>
  <g class="st5">
    <text class="st7" transform="translate(498.9 145)"><tspan x="0" y="0">measured &amp; units used</tspan></text>
  </g>
  <g class="st5">
    <text class="st8" transform="translate(339.5 120)"><tspan x="0" y="0">+</tspan></text>
  </g>
  <path class="st14" d="M0,0"/>
  <path class="st14" d="M0,0"/>
  <path class="st14" d="M0,0"/>
  <path class="st14" d="M0,0"/>
  <rect class="st17" x="200" y="290" width="300" height="120" rx="5" ry="5"/>
  <g class="st5">
    <text class="st2" transform="translate(225.9 320)"><tspan x="0" y="0">Linear Spatial Reference System</tspan></text>
  </g>
  <g class="st5">
    <text class="st11" transform="translate(248 340)"><tspan x="0" y="0">(diggs:LinearSpatialReferenceSystem)</tspan></text>
  </g>
  <g class="st5">
    <text class="st3" transform="translate(244.5 362)"><tspan x="0" y="0">Complete coordinate system for positioning</tspan></text>
  </g>
  <g class="st5">
    <text class="st3" transform="translate(293.7 379)"><tspan x="0" y="0">along the linear feature</tspan></text>
  </g>
  <g class="st5">
    <text class="st9" transform="translate(207.9 396)"><tspan x="0" y="0">Referenced via srsName attribute, eg. srsName=&quot;#lsr-BH-001&quot;</tspan></text>
  </g>
  <g class="st5">
    <text class="st6" transform="translate(86 77)"><tspan x="0" y="0" xml:space="preserve">              </tspan></text>
  </g>
  <g class="st5">
    <text class="st6" transform="translate(-64 330)"><tspan x="0" y="0" xml:space="preserve">                                        </tspan></text>
  </g>
  <g>
    <line class="st16" x1="346.9" y1="285.7" x2="145.3" y2="160"/>
    <path d="M345.4,284.7l-3.8,1.9h0c0,.1,6.2,1.3,6.2,1.3,2,.7,4,1.4,5.9,2.1-1.5-1.5-3-2.9-4.5-4.4l-3.8-5.1h-.1v4.2h0Z"/>
  </g>
  <line class="st15" x1="-117.1" y1="185.9" x2="-74.8" y2="245.9"/>
  <g>
    <line class="st16" x1="553.3" y1="160" x2="365.8" y2="285.5"/>
    <path d="M367.3,284.5l3.8,1.8h0c0,.1-6.2,1.5-6.2,1.5-2,.8-3.9,1.5-5.9,2.3,1.5-1.5,2.9-3,4.4-4.5l3.6-5.2h.1l.2,4.2h0Z"/>
  </g>
</svg>